HIERARCHY
ROOT Hips
{
	OFFSET 0.000000 83.214638 0.000000
	CHANNELS 6 Xposition Yposition Zposition Xrotation Yrotation Zrotation
	JOINT Pelvis
	{
		OFFSET 0.000000 0.000000 0.000000
		CHANNELS 3 Xrotation Yrotation Zrotation
		JOINT LeftUpLeg
		{
			OFFSET 8.479700 -4.795502 -0.379100
			CHANNELS 3 Xrotation Yrotation Zrotation
			JOINT LeftLeg
			{
				OFFSET 0.024144 -32.555107 0.112900
				CHANNELS 3 Xrotation Yrotation Zrotation
				JOINT LeftFoot
				{
					OFFSET -0.024144 -32.638630 -3.012600
					CHANNELS 3 Xrotation Yrotation Zrotation
					JOINT LeftToeBase
					{
						OFFSET 0.970200 -13.225400 11.864200
						CHANNELS 3 Xrotation Yrotation Zrotation
						End Site
						{
							OFFSET 0.000000 12.319262 0.000000
						}
					}
					JOINT LFootTongue
					{
						OFFSET 1.142400 -1.059800 6.665200
						CHANNELS 3 Xrotation Yrotation Zrotation
						End Site
						{
							OFFSET 0.000000 12.319262 0.000000
						}
					}
				}
				JOINT LeftPantLeg
				{
					OFFSET 0.918482 -16.533964 -2.284700
					CHANNELS 3 Xrotation Yrotation Zrotation
					End Site
					{
						OFFSET 0.350399 24.744368 0.000000
					}
				}
			}
		}
		JOINT RightUpLeg
		{
			OFFSET -8.479700 -4.795502 -0.379100
			CHANNELS 3 Xrotation Yrotation Zrotation
			JOINT RightLeg
			{
				OFFSET -0.023144 -32.555092 0.112900
				CHANNELS 3 Xrotation Yrotation Zrotation
				JOINT RightFoot
				{
					OFFSET 0.023144 -32.638641 -3.012700
					CHANNELS 3 Xrotation Yrotation Zrotation
					JOINT RightToeBase
					{
						OFFSET -0.970200 -13.225400 11.864200
						CHANNELS 3 Xrotation Yrotation Zrotation
						End Site
						{
							OFFSET 0.000000 12.319244 0.000000
						}
					}
					JOINT RFootTongue
					{
						OFFSET -1.142200 -1.059800 6.665200
						CHANNELS 3 Xrotation Yrotation Zrotation
						End Site
						{
							OFFSET 0.000000 12.319243 0.000000
						}
					}
				}
				JOINT RightPantLeg
				{
					OFFSET -0.919482 -16.533978 -2.284800
					CHANNELS 3 Xrotation Yrotation Zrotation
					End Site
					{
						OFFSET -0.350400 24.744419 0.000000
					}
				}
			}
		}
	}
	JOINT Spine
	{
		OFFSET 0.000000 7.722000 1.166200
		CHANNELS 3 Xrotation Yrotation Zrotation
		JOINT Spine1
		{
			OFFSET 0.000000 12.024101 0.248800
			CHANNELS 3 Xrotation Yrotation Zrotation
			JOINT Spine2
			{
				OFFSET 0.000000 11.502998 -0.491200
				CHANNELS 3 Xrotation Yrotation Zrotation
				JOINT Neck
				{
					OFFSET 0.000000 18.430702 -3.123100
					CHANNELS 3 Xrotation Yrotation Zrotation
					JOINT Head
					{
						OFFSET 0.000000 9.051102 1.034000
						CHANNELS 3 Xrotation Yrotation Zrotation
						JOINT HairB
						{
							OFFSET 0.208400 24.786102 24.822300
							CHANNELS 3 Xrotation Yrotation Zrotation
							End Site
							{
								OFFSET 0.000000 32.263779 0.000000
							}
						}
						JOINT HairA
						{
							OFFSET -7.081100 24.428299 23.196600
							CHANNELS 3 Xrotation Yrotation Zrotation
							End Site
							{
								OFFSET 0.000000 32.263779 0.000000
							}
						}
						JOINT Hat
						{
							OFFSET 16.728800 15.048294 -15.439601
							CHANNELS 3 Xrotation Yrotation Zrotation
							End Site
							{
								OFFSET 0.000000 32.263779 0.000000
							}
						}
					}
				}
				JOINT LeftShoulder
				{
					OFFSET 6.197800 13.665199 -4.064700
					CHANNELS 3 Xrotation Yrotation Zrotation
					JOINT LeftArm
					{
						OFFSET 7.778100 -0.187103 -1.709300
						CHANNELS 3 Xrotation Yrotation Zrotation
						JOINT LeftForeArm
						{
							OFFSET 22.049376 0.000000 0.000000
							CHANNELS 3 Xrotation Yrotation Zrotation
							JOINT LeftHand
							{
								OFFSET 23.009392 0.000000 0.000000
								CHANNELS 3 Xrotation Yrotation Zrotation
								JOINT LeftHandThumb1
								{
									OFFSET 3.507191 -2.063065 3.133727
									CHANNELS 3 Xrotation Yrotation Zrotation
									JOINT LeftHandThumb2
									{
										OFFSET 3.101337 -1.790558 1.790558
										CHANNELS 3 Xrotation Yrotation Zrotation
										JOINT LeftHandThumb3
										{
											OFFSET 3.058640 -1.765907 1.765906
											CHANNELS 3 Xrotation Yrotation Zrotation
											End Site
											{
												OFFSET -0.415260 3.926476 -0.049563
											}
										}
									}
								}
								JOINT LeftHandIndex1
								{
									OFFSET 11.334419 -0.901459 3.706815
									CHANNELS 3 Xrotation Yrotation Zrotation
									JOINT LeftHandIndex2
									{
										OFFSET 3.283112 0.000000 0.000000
										CHANNELS 3 Xrotation Yrotation Zrotation
										JOINT LeftHandIndex3
										{
											OFFSET 3.323853 0.000000 0.000000
											CHANNELS 3 Xrotation Yrotation Zrotation
											End Site
											{
												OFFSET -1.135597 3.097809 0.402452
											}
										}
									}
								}
								JOINT LeftHandMiddle1
								{
									OFFSET 11.335861 0.000000 0.000000
									CHANNELS 3 Xrotation Yrotation Zrotation
									JOINT LeftHandMiddle2
									{
										OFFSET 3.410492 0.000000 0.000000
										CHANNELS 3 Xrotation Yrotation Zrotation
										JOINT LeftHandMiddle3
										{
											OFFSET 3.312172 0.000000 0.000000
											CHANNELS 3 Xrotation Yrotation Zrotation
											End Site
											{
												OFFSET -1.150200 3.080154 0.400270
											}
										}
									}
								}
								JOINT LeftHandRing1
								{
									OFFSET 11.514786 -0.013176 -3.003090
									CHANNELS 3 Xrotation Yrotation Zrotation
									JOINT LeftHandRing2
									{
										OFFSET 3.053307 0.000000 0.000000
										CHANNELS 3 Xrotation Yrotation Zrotation
										JOINT LeftHandRing3
										{
											OFFSET 3.295807 0.000000 0.000000
											CHANNELS 3 Xrotation Yrotation Zrotation
											End Site
											{
												OFFSET -1.281006 3.013344 0.375733
											}
										}
									}
								}
								JOINT LeftHandPinky1
								{
									OFFSET 10.518692 -0.960396 -5.730441
									CHANNELS 3 Xrotation Yrotation Zrotation
									JOINT LeftHandPinky2
									{
										OFFSET 2.861649 0.000000 0.000000
										CHANNELS 3 Xrotation Yrotation Zrotation
										JOINT LeftHandPinky3
										{
											OFFSET 2.863380 0.000000 0.000000
											CHANNELS 3 Xrotation Yrotation Zrotation
											End Site
											{
												OFFSET -0.843597 2.711159 0.369971
											}
										}
									}
								}
							}
							JOINT LSleeve
							{
								OFFSET 6.676277 -0.344902 -1.011730
								CHANNELS 3 Xrotation Yrotation Zrotation
								End Site
								{
									OFFSET 0.000000 14.885353 0.000000
								}
							}
						}
					}
				}
				JOINT RightShoulder
				{
					OFFSET -6.197800 13.665199 -4.064700
					CHANNELS 3 Xrotation Yrotation Zrotation
					JOINT RightArm
					{
						OFFSET -7.778100 -0.187103 -1.709300
						CHANNELS 3 Xrotation Yrotation Zrotation
						JOINT RightForeArm
						{
							OFFSET -22.049376 0.000000 0.000000
							CHANNELS 3 Xrotation Yrotation Zrotation
							JOINT RightHand
							{
								OFFSET -23.009392 0.000000 0.000000
								CHANNELS 3 Xrotation Yrotation Zrotation
								JOINT RightHandThumb1
								{
									OFFSET -3.507191 -2.063065 3.133727
									CHANNELS 3 Xrotation Yrotation Zrotation
									JOINT RightHandThumb2
									{
										OFFSET -3.101337 -1.790558 1.790558
										CHANNELS 3 Xrotation Yrotation Zrotation
										JOINT RightHandThumb3
										{
											OFFSET -3.058640 -1.765907 1.765906
											CHANNELS 3 Xrotation Yrotation Zrotation
											End Site
											{
												OFFSET 0.415260 3.926476 -0.049563
											}
										}
									}
								}
								JOINT RightHandIndex1
								{
									OFFSET -11.334419 -0.901459 3.706815
									CHANNELS 3 Xrotation Yrotation Zrotation
									JOINT RightHandIndex2
									{
										OFFSET -3.283112 0.000000 0.000000
										CHANNELS 3 Xrotation Yrotation Zrotation
										JOINT RightHandIndex3
										{
											OFFSET -3.323853 0.000000 0.000000
											CHANNELS 3 Xrotation Yrotation Zrotation
											End Site
											{
												OFFSET 1.135597 3.097809 0.402452
											}
										}
									}
								}
								JOINT RightHandMiddle1
								{
									OFFSET -11.335861 0.000000 0.000000
									CHANNELS 3 Xrotation Yrotation Zrotation
									JOINT RightHandMiddle2
									{
										OFFSET -3.410492 0.000000 0.000000
										CHANNELS 3 Xrotation Yrotation Zrotation
										JOINT RightHandMiddle3
										{
											OFFSET -3.312172 0.000000 0.000000
											CHANNELS 3 Xrotation Yrotation Zrotation
											End Site
											{
												OFFSET 1.150200 3.080154 0.400270
											}
										}
									}
								}
								JOINT RightHandRing1
								{
									OFFSET -11.514786 -0.013176 -3.003090
									CHANNELS 3 Xrotation Yrotation Zrotation
									JOINT RightHandRing2
									{
										OFFSET -3.053307 0.000000 0.000000
										CHANNELS 3 Xrotation Yrotation Zrotation
										JOINT RightHandRing3
										{
											OFFSET -3.295807 0.000000 0.000000
											CHANNELS 3 Xrotation Yrotation Zrotation
											End Site
											{
												OFFSET 1.281006 3.013344 0.375733
											}
										}
									}
								}
								JOINT RightHandPinky1
								{
									OFFSET -10.518692 -0.960396 -5.730441
									CHANNELS 3 Xrotation Yrotation Zrotation
									JOINT RightHandPinky2
									{
										OFFSET -2.861649 0.000000 0.000000
										CHANNELS 3 Xrotation Yrotation Zrotation
										JOINT RightHandPinky3
										{
											OFFSET -2.863380 0.000000 0.000000
											CHANNELS 3 Xrotation Yrotation Zrotation
											End Site
											{
												OFFSET 0.843597 2.711159 0.369971
											}
										}
									}
								}
							}
							JOINT RSleeve
							{
								OFFSET -6.676277 -0.344902 -1.011730
								CHANNELS 3 Xrotation Yrotation Zrotation
								End Site
								{
									OFFSET 0.000000 14.885353 0.000000
								}
							}
						}
					}
				}
				JOINT Backpack
				{
					OFFSET 0.000000 -2.471497 36.677502
					CHANNELS 3 Xrotation Yrotation Zrotation
					End Site
					{
						OFFSET 0.000000 20.427315 0.000000
					}
				}
				JOINT Hood
				{
					OFFSET 0.000000 18.754097 -10.431000
					CHANNELS 3 Xrotation Yrotation Zrotation
					JOINT Hood1
					{
						OFFSET 0.000000 -5.011002 -7.685901
						CHANNELS 3 Xrotation Yrotation Zrotation
						End Site
						{
							OFFSET 0.000000 9.175140 0.000000
						}
					}
				}
				JOINT LHoodieString
				{
					OFFSET 5.250500 16.397697 3.089900
					CHANNELS 3 Xrotation Yrotation Zrotation
					JOINT LHoodieString1
					{
						OFFSET 0.257700 -6.364304 3.694600
						CHANNELS 3 Xrotation Yrotation Zrotation
						JOINT LHoodieString2
						{
							OFFSET 0.000000 -9.643799 2.679100
							CHANNELS 3 Xrotation Yrotation Zrotation
							End Site
							{
								OFFSET 0.000000 10.009018 0.000000
							}
						}
					}
				}
				JOINT RHoodieString
				{
					OFFSET -5.250500 16.397697 3.089900
					CHANNELS 3 Xrotation Yrotation Zrotation
					JOINT RHoodieString1
					{
						OFFSET -0.257700 -6.364304 3.694600
						CHANNELS 3 Xrotation Yrotation Zrotation
						JOINT RHoodieString2
						{
							OFFSET 0.000000 -9.643799 2.679100
							CHANNELS 3 Xrotation Yrotation Zrotation
							End Site
							{
								OFFSET 0.000000 10.009018 0.000000
							}
						}
					}
				}
			}
			JOINT LBackpack_Strap
			{
				OFFSET 15.223200 -7.719803 -6.610900
				CHANNELS 3 Xrotation Yrotation Zrotation
				End Site
				{
					OFFSET 0.000000 16.040596 0.000000
				}
			}
			JOINT RBackpack_Strap
			{
				OFFSET -15.223000 -7.719803 -6.610900
				CHANNELS 3 Xrotation Yrotation Zrotation
				End Site
				{
					OFFSET 0.000000 16.040596 0.000000
				}
			}
		}
	}
	JOINT BoyFacialAnim_Joint
	{
		OFFSET 1.000000 -82.208099 -1.550900
		CHANNELS 3 Xrotation Yrotation Zrotation
		End Site
		{
			OFFSET 0.000000 30.012791 0.000000
		}
	}
}
MOTION
Frames: 4
Frame Time: 0.033333
-0.049396 76.342644 -0.595105 5.724327 -9.529702 8.887534 0.000000 -0.000001 0.000001 -55.159525 -13.236026 -19.846445 35.095715 26.239285 3.766702 18.903798 -3.049887 -18.724516 -0.000000 -0.000000 -0.000000 -0.000000 -0.000000 -0.000000 -0.000000 0.000000 -0.000000 -45.254040 -46.036325 -35.232438 47.888287 26.304788 5.824077 -24.694578 4.211971 -17.695179 -0.000000 -0.000000 -0.000000 -0.000000 -0.000000 -0.000000 -0.000000 0.000002 0.000002 -1.440208 0.643557 0.857304 -2.887509 1.191149 1.602615 -2.887510 1.191152 1.602616 2.884187 -20.364699 2.032715 6.253290 -40.732953 20.812939 -0.000001 -0.000001 -0.000001 -0.000001 -0.000001 -0.000001 -0.000001 -0.000001 -0.000001 0.930038 2.441683 -16.054156 11.015789 23.300871 -42.418825 36.916913 -24.727926 -13.750270 32.910409 -6.069587 -0.334341 -11.704841 -6.638686 -13.043701 1.802578 5.540938 2.039526 -0.000002 -0.000001 -0.000001 0.803906 -6.865179 -17.143814 0.067990 0.764261 -16.879054 0.000001 -0.000001 -0.000002 0.067964 2.652302 -15.353777 -0.071680 -0.275232 -9.773488 -0.000000 0.000001 -0.000001 3.230576 16.396265 -23.701639 -0.094170 -1.512604 -11.056650 0.000001 -0.000001 -0.000001 1.356323 24.712975 -12.647586 -0.461525 -5.319225 -15.677275 0.000002 0.000001 -0.000002 0.000001 0.000002 0.000003 4.670848 7.401467 19.710411 2.844438 -8.719699 35.722815 45.690858 15.863637 10.396473 37.973786 9.599018 -12.111261 -0.248156 1.445098 1.629761 0.823815 -3.340815 -1.764588 0.000001 0.000001 -0.000000 -1.290561 0.892329 12.582103 0.017282 -0.810610 20.106417 -0.000001 0.000001 0.000000 -1.417536 -0.266940 20.149905 -0.128058 0.432395 13.768237 0.000000 0.000000 -0.000000 -5.900895 -8.437455 25.854976 -0.222744 2.155920 16.318247 0.000001 -0.000000 0.000004 -4.333879 -13.505844 26.055065 -0.834683 6.893341 25.541192 0.000001 -0.000001 0.000000 0.000001 0.000001 -0.000000 0.000000 0.000000 0.000000 0.000000 0.000000 0.000000 0.000000 0.000000 0.000000 0.000000 0.000000 0.000000 0.000000 0.000000 -0.000000 0.000000 0.000000 -0.000000 0.000000 0.000000 0.000000 0.000000 0.000000 -0.000000 0.000000 0.000000 -0.000000 -0.000000 -0.000001 0.000000 -0.000000 -0.000001 0.000000 0.000000 -0.000001 0.000001 
-2.913730 76.204102 -0.573319 5.732037 -9.847415 8.031581 -0.000001 -0.000001 0.000000 -55.280355 -11.834814 -21.874038 33.410823 27.979260 1.859691 19.834372 -3.467934 -21.831590 -0.000001 0.000000 -0.000000 -0.000001 0.000000 -0.000000 -0.000001 -0.000000 0.000000 -39.699669 -47.941651 -29.769598 45.604784 25.661222 7.023989 -25.489144 4.941917 -19.587451 0.000000 0.000001 -0.000000 0.000000 0.000001 -0.000000 -0.000000 -0.000001 -0.000004 -1.409412 0.704877 0.996558 -2.827867 1.324296 1.854517 -2.827866 1.324295 1.854522 3.297908 -20.064758 3.065989 5.337407 -40.201394 20.103096 -0.000002 -0.000001 0.000001 -0.000002 -0.000001 0.000001 -0.000002 -0.000001 0.000001 0.904130 2.755103 -15.291718 10.865386 23.013882 -42.534651 36.781829 -24.579703 -13.506197 32.800238 -6.187258 0.206467 -11.704836 -6.638690 -13.043701 1.802586 5.540937 2.039525 0.000002 -0.000001 0.000001 0.803908 -6.865179 -17.143812 0.067990 0.764260 -16.879052 -0.000002 -0.000002 -0.000000 0.066601 2.647142 -15.405662 -0.073174 -0.284027 -9.854908 0.000003 -0.000000 0.000002 3.220286 16.386406 -23.639975 -0.090857 -1.497280 -10.799084 0.000002 -0.000002 -0.000001 1.349085 24.705177 -12.580934 -0.459835 -5.313207 -15.385317 0.000001 0.000001 -0.000000 -0.000002 -0.000000 0.000000 4.583608 8.251332 20.432200 2.818328 -9.091160 34.966757 45.628372 15.657676 10.645457 37.758741 9.674522 -12.056618 -0.776157 1.380771 0.672717 0.943985 -3.609728 -1.800200 0.000001 0.000001 -0.000000 -1.285343 0.868671 12.271788 0.026152 -0.835068 19.847222 -0.000000 0.000000 0.000002 -1.400790 -0.313440 19.520056 -0.122563 0.409820 13.508607 0.000001 0.000001 -0.000000 -5.346378 -8.238415 25.139090 -0.216850 2.134339 16.058366 -0.000002 0.000001 -0.000003 -3.769339 -13.314762 24.945686 -0.826067 6.875322 25.280296 0.000001 -0.000001 -0.000002 -0.000000 0.000000 0.000000 0.000000 0.000000 -0.000000 0.000000 0.000000 -0.000000 0.000000 0.000000 -0.000000 0.000000 0.000000 -0.000000 0.000000 0.000000 -0.000000 0.000000 -0.000000 -0.000000 0.000000 0.000000 -0.000000 0.000000 0.000000 -0.000000 0.000000 -0.000000 -0.000000 -0.000000 -0.000001 -0.000000 -0.000000 -0.000001 -0.000000 -0.000001 -0.000001 0.000000 
-5.881942 75.946609 -0.508034 5.780622 -10.283649 7.214605 -0.000000 0.000002 -0.000000 -54.390381 -10.029306 -22.548592 32.361552 31.783705 -0.917642 23.642558 -4.485925 -24.603788 0.000001 -0.000000 0.000001 0.000001 -0.000000 0.000001 -0.000001 -0.000000 0.000001 -33.247093 -49.174008 -23.067384 43.275358 24.459903 7.687567 -26.381286 5.754231 -21.138713 -0.000000 0.000000 -0.000000 -0.000000 0.000000 -0.000000 -0.000001 -0.000001 0.000000 -1.385465 0.777997 1.135645 -2.780125 1.444302 2.009521 -2.780126 1.444303 2.009520 3.769765 -19.860554 4.198504 4.568812 -39.798860 19.469574 0.000000 -0.000002 0.000001 0.000000 -0.000002 0.000001 0.000000 -0.000002 0.000001 0.867470 3.019327 -14.490018 10.782511 22.836603 -42.591246 36.631578 -24.564099 -13.277018 32.585484 -6.397101 0.707373 -11.704834 -6.638686 -13.043701 1.802584 5.540935 2.039526 0.000002 -0.000000 -0.000001 0.803908 -6.865181 -17.143814 0.067997 0.764260 -16.879052 0.000000 -0.000000 -0.000002 0.057274 2.612490 -15.755028 -0.083729 -0.343096 -10.403328 -0.000001 -0.000001 0.000000 3.178576 16.240385 -23.899672 -0.093209 -1.508230 -10.983283 0.000002 -0.000001 -0.000001 1.337351 24.587358 -12.815154 -0.459579 -5.312293 -15.341061 0.000002 -0.000000 0.000001 -0.000003 -0.000001 0.000001 4.493074 9.068204 21.179909 2.722544 -9.259168 34.278459 45.532479 15.545391 10.844966 37.460196 9.601495 -11.854909 -1.337886 1.322176 -0.344060 1.071458 -3.895360 -1.837413 -0.000001 0.000000 -0.000001 -1.279950 0.843545 11.942310 0.035464 -0.861060 19.572020 -0.000001 0.000000 0.000002 -1.383540 -0.362954 18.851271 -0.116870 0.385816 13.232940 0.000002 0.000000 0.000002 -4.752577 -8.042893 24.378267 -0.210679 2.111384 15.782421 -0.000000 0.000001 0.000000 -3.162419 -13.136291 23.768331 -0.817017 6.856157 25.003303 -0.000000 0.000000 -0.000001 0.000003 -0.000000 -0.000000 -0.000000 0.000000 -0.000000 -0.000000 0.000000 -0.000000 -0.000000 0.000000 -0.000000 -0.000000 0.000000 -0.000000 -0.000000 0.000000 -0.000001 -0.000000 -0.000000 -0.000001 -0.000000 0.000000 -0.000000 -0.000000 0.000000 -0.000001 -0.000000 -0.000000 -0.000001 0.000000 0.000000 0.000000 0.000000 0.000000 0.000000 -0.000000 0.000002 -0.000000 
-8.968059 75.605309 -0.427181 5.886634 -10.842463 6.529891 0.000000 0.000000 0.000000 -52.674938 -8.233471 -22.369807 32.112742 36.837710 -3.698707 28.987248 -5.520444 -26.029281 -0.000000 0.000002 0.000006 -0.000000 0.000002 0.000006 0.000001 -0.000000 0.000002 -26.274981 -49.700288 -15.622972 40.734637 22.936930 8.050763 -27.195887 6.517408 -22.461412 0.000000 -0.000002 -0.000000 0.000000 -0.000002 -0.000000 0.000003 0.000001 -0.000002 -1.364578 0.889077 1.241393 -2.737551 1.627137 2.065498 -2.737550 1.627135 2.065492 4.049103 -19.775008 5.194566 4.078925 -39.536878 19.008792 -0.000000 -0.000000 -0.000000 -0.000000 -0.000000 -0.000000 -0.000000 -0.000000 -0.000000 0.824252 3.137524 -13.738482 10.599894 22.640467 -42.579734 36.490757 -24.416685 -13.057828 32.452124 -6.653924 0.864800 -11.704838 -6.638688 -13.043700 1.802588 5.540936 2.039526 -0.000001 0.000001 -0.000001 0.803908 -6.865179 -17.143812 0.067996 0.764262 -16.879054 -0.000002 -0.000001 -0.000004 0.039327 2.548385 -16.405686 -0.104894 -0.452890 -11.424769 0.000000 -0.000001 -0.000000 3.101120 15.958167 -24.485525 -0.101647 -1.545948 -11.617574 0.000001 -0.000001 0.000003 1.317860 24.358985 -13.354275 -0.460759 -5.316608 -15.550454 0.000001 -0.000002 0.000001 0.000001 0.000001 0.000001 4.416345 9.709285 21.800033 2.579978 -9.194622 33.824412 45.338724 15.540803 10.951806 37.037111 9.374894 -11.556963 -1.929188 1.271337 -1.413100 1.205245 -4.195611 -1.875842 0.000001 0.000000 -0.000000 -1.274432 0.817111 11.596066 0.045119 -0.888427 19.282823 -0.000001 -0.000001 0.000002 -1.366045 -0.415226 18.148494 -0.110999 0.360578 12.943256 -0.000000 0.000000 0.000003 -4.123363 -7.855157 23.578213 -0.204331 2.087238 15.492478 -0.000001 0.000000 0.000004 -2.517064 -12.976146 22.531903 -0.807589 6.835994 24.712239 -0.000001 -0.000002 -0.000002 0.000000 0.000001 0.000000 -0.000000 0.000000 -0.000000 -0.000000 0.000000 -0.000000 -0.000000 0.000000 -0.000000 -0.000000 0.000000 -0.000000 -0.000000 0.000000 -0.000000 -0.000000 0.000000 -0.000000 -0.000000 0.000000 -0.000000 -0.000000 0.000000 -0.000000 -0.000000 0.000000 -0.000000 0.000000 -0.000000 0.000000 0.000000 -0.000000 0.000000 0.000000 0.000000 0.000000 
